<?xml version="1.0" encoding="UTF-8"?>

<!DOCTYPE svg PUBLIC '-//W3C//DTD SVG 1.0//EN' 'http://www.w3.org/TR/2001/REC-SVG-20010904/DTD/svg10.dtd'>
<svg stroke-dasharray="none" shape-rendering="auto" xmlns="http://www.w3.org/2000/svg" font-family="&apos;Dialog&apos;" text-rendering="auto" width="26.399999999999864cm" fill-opacity="1" color-interpolation="auto" color-rendering="auto" font-size="12" viewBox="0 0 1229 844" fill="black" xmlns:xlink="http://www.w3.org/1999/xlink" stroke="black" image-rendering="auto" stroke-miterlimit="10" stroke-linecap="square" stroke-linejoin="miter" font-style="normal" stroke-width="1" height="18.099999999999945cm" stroke-dashoffset="0" font-weight="normal" stroke-opacity="1">
  <!--Generated by the Batik Graphics2D SVG Generator-->
  <defs id="genericDefs" />
  <g>
    <g stroke-linecap="butt" fill="rgb(255,175,175)" text-rendering="geometricPrecision" stroke-linejoin="bevel" stroke-dasharray="2,2" stroke="rgb(255,175,175)" stroke-width="0.7" stroke-miterlimit="8">
      <line y2="844" fill="none" x1="-227" x2="-227" y1="0" />
      <line y2="844" fill="none" x1="-110" x2="-110" y1="0" />
      <line y2="844" fill="none" x1="6" x2="6" y1="0" />
      <line y2="844" fill="none" x1="123" x2="123" y1="0" />
      <line y2="844" fill="none" x1="239" x2="239" y1="0" />
      <line y2="844" fill="none" x1="355" x2="355" y1="0" />
      <line y2="844" fill="none" x1="472" x2="472" y1="0" />
      <line y2="844" fill="none" x1="588" x2="588" y1="0" />
      <line y2="844" fill="none" x1="704" x2="704" y1="0" />
      <line y2="844" fill="none" x1="821" x2="821" y1="0" />
      <line y2="844" fill="none" x1="937" x2="937" y1="0" />
      <line y2="844" fill="none" x1="1054" x2="1054" y1="0" />
      <line y2="844" fill="none" x1="1170" x2="1170" y1="0" />
      <line y2="844" fill="none" x1="1286" x2="1286" y1="0" />
      <line y2="-8" fill="none" x1="0" x2="1229" y1="-8" />
      <line y2="109" fill="none" x1="0" x2="1229" y1="109" />
      <line y2="225" fill="none" x1="0" x2="1229" y1="225" />
      <line y2="342" fill="none" x1="0" x2="1229" y1="342" />
      <line y2="458" fill="none" x1="0" x2="1229" y1="458" />
      <line y2="575" fill="none" x1="0" x2="1229" y1="575" />
      <line y2="691" fill="none" x1="0" x2="1229" y1="691" />
      <line y2="808" fill="none" x1="0" x2="1229" y1="808" />
      <line y2="925" fill="none" x1="0" x2="1229" y1="925" />
      <line y2="1041" fill="none" x1="0" x2="1229" y1="1041" />
    </g>
    <g fill-opacity="0" fill="rgb(0,255,0)" text-rendering="geometricPrecision" stroke="rgb(0,255,0)" stroke-width="1.4" stroke-opacity="0">
      <ellipse rx="1745.5" ry="1748.5" cx="355.5" cy="574.5" stroke="none" />
    </g>
    <g fill-opacity="0.251" fill="rgb(0,0,255)" text-rendering="geometricPrecision" stroke="rgb(0,0,255)" stroke-width="1.4" stroke-opacity="0.251">
      <ellipse rx="1745.5" fill="none" ry="1748.5" cx="355.5" cy="574.5" />
    </g>
    <g font-size="15" fill-opacity="0" fill="rgb(0,0,0)" text-rendering="geometricPrecision" stroke="rgb(0,0,0)" stroke-width="0.7" stroke-opacity="0">
      <text xml:space="preserve" x="-1216" y="575" stroke="none">k</text>
      <text xml:space="preserve" x="-1208" font-size="13" y="579" stroke="none">a</text>
    </g>
    <g fill="blue" text-rendering="geometricPrecision" stroke-width="1.4" font-size="13" stroke="blue">
      <line y2="575" fill="none" x1="-202" x2="355" y1="-10" />
    </g>
    <g font-size="15" fill-opacity="0" fill="rgb(0,0,0)" text-rendering="geometricPrecision" stroke="rgb(0,0,0)" stroke-width="0.7" stroke-opacity="0">
      <text xml:space="preserve" x="10" y="192" stroke="none">r+</text>
    </g>
    <g font-size="15" fill-opacity="0.4" fill="rgb(0,0,255)" text-rendering="geometricPrecision" stroke="rgb(0,0,255)" stroke-width="1.4" stroke-opacity="0.4">
      <line y2="-2687" fill="none" x1="-10" x2="1239" y1="-1493" />
    </g>
    <g font-size="15" fill-opacity="0" fill="rgb(0,0,0)" text-rendering="geometricPrecision" stroke="rgb(0,0,0)" stroke-width="0.7" stroke-opacity="0">
      <text xml:space="preserve" x="-1576" y="17" stroke="none">f</text>
      <circle fill="rgb(0,255,0)" r="233" cx="-850" cy="-690" stroke="none" stroke-width="1.4" />
    </g>
    <g font-size="15" fill-opacity="0.4" fill="rgb(0,0,255)" text-rendering="geometricPrecision" stroke="rgb(0,0,255)" stroke-width="1.4" stroke-opacity="0.4">
      <circle fill="none" r="233" cx="-850" cy="-690" />
    </g>
    <g font-size="15" fill-opacity="0" fill="rgb(0,0,0)" text-rendering="geometricPrecision" stroke="rgb(0,0,0)" stroke-width="0.7" stroke-opacity="0">
      <text xml:space="preserve" x="-1060" y="-690" stroke="none">k</text>
      <text xml:space="preserve" x="-1052" font-size="13" y="-686" stroke="none">b</text>
    </g>
    <g fill="blue" text-rendering="geometricPrecision" stroke-width="1.4" font-size="13" stroke="blue">
      <line y2="575" fill="none" x1="-10" x2="355" y1="575" />
    </g>
    <g font-size="15" fill-opacity="0" fill="rgb(0,0,0)" text-rendering="geometricPrecision" stroke="rgb(0,0,0)" stroke-width="0.7" stroke-opacity="0">
      <text xml:space="preserve" x="55" y="575" stroke="none">d</text>
    </g>
    <g font-size="15" fill-opacity="0.1961" fill="rgb(255,127,0)" text-rendering="geometricPrecision" stroke="rgb(255,127,0)" stroke-width="1.4" stroke-opacity="0.1961">
      <path d="M290.3968 508.2417 C272.2492 525.8608 262 550.1363 262 575.5 L355 575.5 Z" stroke="none" />
      <path fill="none" fill-opacity="0.3922" d="M290.3968 508.2417 C272.2492 525.8608 262 550.1363 262 575.5" stroke-opacity="0.3922" />
    </g>
    <g text-rendering="geometricPrecision" stroke-width="0.7" font-size="15">
      <text xml:space="preserve" x="298" y="550" stroke="none">α</text>
      <text xml:space="preserve" x="413" y="-999" stroke="none">E = (r * cos(α)|r * sin(α))</text>
    </g>
    <g font-size="15" fill-opacity="0" fill="rgb(200,200,200)" text-rendering="geometricPrecision" stroke="rgb(200,200,200)" stroke-width="0.7" stroke-opacity="0">
      <rect fill="none" width="188" x="411" height="20" y="-1015" />
    </g>
    <g fill="blue" text-rendering="geometricPrecision" stroke-width="1.4" font-size="15" stroke="blue">
      <line y2="854" fill="none" x1="120" x2="943" y1="-10" />
    </g>
    <g font-size="15" fill-opacity="0" fill="rgb(0,0,0)" text-rendering="geometricPrecision" stroke="rgb(0,0,0)" stroke-width="0.7" stroke-opacity="0">
      <text xml:space="preserve" x="953" y="819" stroke="none">n</text>
    </g>
    <g fill="blue" text-rendering="geometricPrecision" stroke-width="1.4" font-size="15" stroke="blue">
      <line y2="575" fill="none" x1="530" x2="530" y1="342" />
    </g>
    <g font-size="15" fill-opacity="0" fill="rgb(0,0,0)" text-rendering="geometricPrecision" stroke="rgb(0,0,0)" stroke-width="0.7" stroke-opacity="0">
      <text xml:space="preserve" x="521" y="458" stroke="none">h</text>
    </g>
    <g font-size="15" fill-opacity="0.502" fill="rgb(0,0,255)" text-rendering="geometricPrecision" stroke="rgb(0,0,255)" stroke-width="1.4" stroke-opacity="0.502">
      <line y2="342" fill="none" x1="-10" x2="1239" y1="342" />
    </g>
    <g font-size="15" fill-opacity="0" fill="rgb(0,0,0)" text-rendering="geometricPrecision" stroke="rgb(0,0,0)" stroke-width="0.7" stroke-opacity="0">
      <text xml:space="preserve" x="10" y="342" stroke="none">i</text>
    </g>
    <g fill="blue" text-rendering="geometricPrecision" stroke-width="1.4" font-size="15" stroke="blue">
      <line y2="575" fill="none" x1="763" x2="763" y1="342" />
    </g>
    <g font-size="15" fill-opacity="0" fill="rgb(0,0,0)" text-rendering="geometricPrecision" stroke="rgb(0,0,0)" stroke-width="0.7" stroke-opacity="0">
      <text xml:space="preserve" x="757" y="458" stroke="none">j</text>
    </g>
    <g font-size="15" fill-opacity="0.349" fill="rgb(0,0,255)" text-rendering="geometricPrecision" stroke="rgb(0,0,255)" stroke-width="1.4" stroke-opacity="0.349">
      <line y2="575" fill="none" x1="-10" x2="1239" y1="575" />
    </g>
    <g font-size="15" fill-opacity="0" fill="rgb(0,0,0)" text-rendering="geometricPrecision" stroke="rgb(0,0,0)" stroke-width="0.7" stroke-opacity="0">
      <text xml:space="preserve" x="1212" y="575" stroke="none">k</text>
    </g>
    <g fill="red" text-rendering="geometricPrecision" stroke-width="1.4" font-size="15" stroke="red">
      <line y2="575" fill="none" x1="-202" x2="355" y1="-10" />
      <text x="-255" y="-58" fill="black" stroke="none" stroke-width="0.7" xml:space="preserve">r</text>
      <line fill="none" x1="-10" x2="-682" y1="-1493" y2="-851" stroke="rgb(0,128,64)" />
      <text x="-782" y="-770" fill="black" stroke="none" stroke-width="0.7" xml:space="preserve">r</text>
    </g>
    <g text-rendering="geometricPrecision" stroke-width="0.7" font-size="13">
      <text xml:space="preserve" x="-776" y="-766" stroke="none">e</text>
    </g>
    <g font-size="13" fill-opacity="0.502" fill="rgb(0,0,255)" text-rendering="geometricPrecision" stroke="rgb(0,0,255)" stroke-width="1.4" stroke-opacity="0.502">
      <line y2="342" fill="none" x1="-682" x2="-682" y1="-10" />
    </g>
    <g font-size="15" fill-opacity="0" fill="rgb(0,0,0)" text-rendering="geometricPrecision" stroke="rgb(0,0,0)" stroke-width="0.7" stroke-opacity="0">
      <text xml:space="preserve" x="-691" y="-255" stroke="none">g</text>
      <circle fill="rgb(0,255,0)" r="233" cx="-682" cy="-851" stroke="none" stroke-width="1.4" />
    </g>
    <g font-size="15" fill-opacity="0.302" fill="rgb(0,0,255)" text-rendering="geometricPrecision" stroke="rgb(0,0,255)" stroke-width="1.4" stroke-opacity="0.302">
      <circle fill="none" r="233" cx="-682" cy="-851" />
    </g>
    <g font-size="15" fill-opacity="0" fill="rgb(0,0,0)" text-rendering="geometricPrecision" stroke="rgb(0,0,0)" stroke-width="0.7" stroke-opacity="0">
      <text xml:space="preserve" x="-891" y="-851" stroke="none">k</text>
      <text xml:space="preserve" x="-883" font-size="13" y="-847" stroke="none">c</text>
    </g>
    <g fill="blue" text-rendering="geometricPrecision" stroke-width="1.4" font-size="13" stroke="blue">
      <line y2="854" fill="none" x1="441" x2="1265" y1="-10" />
    </g>
    <g font-size="15" fill-opacity="0" fill="rgb(0,0,0)" text-rendering="geometricPrecision" stroke="rgb(0,0,0)" stroke-width="0.7" stroke-opacity="0">
      <text xml:space="preserve" x="1211" y="804" stroke="none">a</text>
    </g>
    <g fill="blue" text-rendering="geometricPrecision" stroke-width="1.4" font-size="15" stroke="blue">
      <line y2="342" fill="none" x1="530" x2="763" y1="342" />
    </g>
    <g font-size="15" fill-opacity="0" fill="rgb(0,0,0)" text-rendering="geometricPrecision" stroke="rgb(0,0,0)" stroke-width="0.7" stroke-opacity="0">
      <text xml:space="preserve" x="640" y="342" stroke="none">l</text>
    </g>
    <g fill="blue" text-rendering="geometricPrecision" stroke-width="1.4" font-size="15" stroke="blue">
      <line y2="575" fill="none" x1="530" x2="763" y1="575" />
    </g>
    <g font-size="15" fill-opacity="0" fill="rgb(0,0,0)" text-rendering="geometricPrecision" stroke="rgb(0,0,0)" stroke-width="0.7" stroke-opacity="0">
      <text xml:space="preserve" x="634" y="575" stroke="none">m</text>
    </g>
    <g font-size="15" fill-opacity="0.1961" fill="rgb(255,127,0)" text-rendering="geometricPrecision" stroke="rgb(255,127,0)" stroke-width="1.4" stroke-opacity="0.1961">
      <path d="M950.3739 524.6462 C936.7145 537.837 929 556.0111 929 575 L999 575 Z" stroke="none" />
      <path fill="none" fill-opacity="0.3922" d="M950.3739 524.6462 C936.7145 537.837 929 556.0111 929 575" stroke-opacity="0.3922" />
    </g>
    <g text-rendering="geometricPrecision" stroke-width="0.7" font-size="15">
      <text xml:space="preserve" x="956" y="557" stroke="none">α</text>
    </g>
    <g font-size="15" fill-opacity="0.1961" fill="rgb(255,127,0)" text-rendering="geometricPrecision" stroke="rgb(255,127,0)" stroke-width="1.4" stroke-opacity="0.1961">
      <path d="M487.649 374.9493 C496.8203 366.1869 502 354.114 502 341.5 L455 341.5 Z" stroke="none" />
      <path fill="none" fill-opacity="0.3922" d="M487.649 374.9493 C496.8203 366.1869 502 354.114 502 341.5" stroke-opacity="0.3922" />
    </g>
    <g text-rendering="geometricPrecision" stroke-width="0.7" font-size="15">
      <text xml:space="preserve" x="483" y="354" stroke="none">α</text>
      <line fill="none" x1="352" x2="358" y1="572" y2="578" stroke="red" stroke-width="2.1" />
      <line fill="none" x1="358" x2="352" y1="572" y2="578" stroke="red" stroke-width="2.1" />
      <text xml:space="preserve" x="355" y="565" stroke="none">M</text>
      <line fill="none" x1="-853" x2="-847" y1="-693" y2="-687" stroke="rgb(255,150,0)" stroke-width="2.1" />
      <line fill="none" x1="-847" x2="-853" y1="-693" y2="-687" stroke="rgb(255,150,0)" stroke-width="2.1" />
      <text xml:space="preserve" x="-850" y="-700" stroke="none">E</text>
      <line fill="none" x1="-1021" x2="-1015" y1="-532" y2="-526" stroke="gray" stroke-width="2.1" />
      <line fill="none" x1="-1015" x2="-1021" y1="-532" y2="-526" stroke="gray" stroke-width="2.1" />
      <text xml:space="preserve" x="-1018" y="-539" stroke="none">F</text>
      <line fill="none" x1="-685" x2="-679" y1="-854" y2="-848" stroke="gray" stroke-width="2.1" />
      <line fill="none" x1="-679" x2="-685" y1="-854" y2="-848" stroke="gray" stroke-width="2.1" />
      <text xml:space="preserve" x="-682" y="-861" stroke="none">H</text>
    </g>
    <g font-size="15" fill-opacity="0" fill="rgb(255,0,0)" text-rendering="geometricPrecision" stroke="rgb(255,0,0)" stroke-width="2.1" stroke-opacity="0">
      <line y2="578" fill="none" x1="-230" x2="-224" y1="572" />
      <line y2="578" fill="none" x1="-224" x2="-230" y1="572" />
      <text x="-227" y="565" fill="rgb(0,0,0)" stroke="none" stroke-width="0.7" xml:space="preserve">K</text>
    </g>
    <g fill="rgb(0,128,64)" text-rendering="geometricPrecision" stroke-width="2.1" font-size="15" stroke="rgb(0,128,64)">
      <line y2="578" fill="none" x1="527" x2="533" y1="572" />
      <line y2="578" fill="none" x1="533" x2="527" y1="572" />
      <text x="530" y="565" fill="black" stroke="none" stroke-width="0.7" xml:space="preserve">A</text>
    </g>
    <g font-size="15" fill-opacity="0" fill="rgb(255,0,0)" text-rendering="geometricPrecision" stroke="rgb(255,0,0)" stroke-width="2.1" stroke-opacity="0">
      <line y2="345" fill="none" x1="527" x2="533" y1="339" />
      <line y2="345" fill="none" x1="533" x2="527" y1="339" />
    </g>
    <g text-rendering="geometricPrecision" stroke-width="0.7" font-size="15">
      <text xml:space="preserve" x="530" y="332" stroke="none">D</text>
    </g>
    <g font-size="15" fill-opacity="0" fill="rgb(255,0,0)" text-rendering="geometricPrecision" stroke="rgb(255,0,0)" stroke-width="2.1" stroke-opacity="0">
      <line y2="345" fill="none" x1="760" x2="766" y1="339" />
      <line y2="345" fill="none" x1="766" x2="760" y1="339" />
    </g>
    <g text-rendering="geometricPrecision" stroke-width="0.7" font-size="15">
      <text xml:space="preserve" x="763" y="332" stroke="none">C</text>
    </g>
    <g font-size="15" fill-opacity="0" fill="rgb(255,0,0)" text-rendering="geometricPrecision" stroke="rgb(255,0,0)" stroke-width="2.1" stroke-opacity="0">
      <line y2="578" fill="none" x1="760" x2="766" y1="572" />
      <line y2="578" fill="none" x1="766" x2="760" y1="572" />
    </g>
    <g text-rendering="geometricPrecision" stroke-width="0.7" font-size="15">
      <text xml:space="preserve" x="763" y="565" stroke="none">B</text>
      <line fill="none" x1="452" x2="458" y1="339" y2="345" stroke="gray" stroke-width="2.1" />
      <line fill="none" x1="458" x2="452" y1="339" y2="345" stroke="gray" stroke-width="2.1" />
      <text xml:space="preserve" x="455" y="332" stroke="none">H</text>
      <text xml:space="preserve" x="466" font-size="13" y="336" stroke="none">D</text>
      <line fill="none" x1="674" x2="680" y1="572" y2="578" stroke="gray" stroke-width="2.1" />
      <line fill="none" x1="680" x2="674" y1="572" y2="578" stroke="gray" stroke-width="2.1" />
      <text xml:space="preserve" x="677" y="565" stroke="none">H</text>
      <text xml:space="preserve" x="688" font-size="13" y="569" stroke="none">A</text>
      <line fill="none" x1="-685" x2="-679" y1="339" y2="345" stroke="gray" stroke-width="2.1" />
      <line fill="none" x1="-679" x2="-685" y1="339" y2="345" stroke="gray" stroke-width="2.1" />
      <text xml:space="preserve" x="-682" y="332" stroke="none">L</text>
      <line fill="none" x1="-516" x2="-510" y1="-1015" y2="-1009" stroke="gray" stroke-width="2.1" />
      <line fill="none" x1="-510" x2="-516" y1="-1015" y2="-1009" stroke="gray" stroke-width="2.1" />
      <text xml:space="preserve" x="-513" y="-1022" stroke="none">G</text>
      <line fill="none" x1="774" x2="780" y1="339" y2="345" stroke="gray" stroke-width="2.1" />
      <line fill="none" x1="780" x2="774" y1="339" y2="345" stroke="gray" stroke-width="2.1" />
      <text xml:space="preserve" x="777" y="332" stroke="none">G</text>
      <text xml:space="preserve" x="789" font-size="13" y="336" stroke="none">D</text>
      <line fill="none" x1="996" x2="1002" y1="572" y2="578" stroke="gray" stroke-width="2.1" />
      <line fill="none" x1="1002" x2="996" y1="572" y2="578" stroke="gray" stroke-width="2.1" />
      <text xml:space="preserve" x="999" y="565" stroke="none">G</text>
      <text xml:space="preserve" x="1011" font-size="13" y="569" stroke="none">A</text>
      <line fill="none" x1="527" x2="533" y1="417" y2="423" stroke="gray" stroke-width="2.1" />
      <line fill="none" x1="533" x2="527" y1="417" y2="423" stroke="gray" stroke-width="2.1" />
      <text xml:space="preserve" x="530" y="410" stroke="none">LVI</text>
    </g>
  </g>
</svg>
