<?xml version="1.0" encoding="UTF-8"?>

<!DOCTYPE svg PUBLIC '-//W3C//DTD SVG 1.0//EN' 'http://www.w3.org/TR/2001/REC-SVG-20010904/DTD/svg10.dtd'>
<svg stroke-dasharray="none" shape-rendering="auto" xmlns="http://www.w3.org/2000/svg" font-family="&apos;Dialog&apos;" text-rendering="auto" width="31.436256597970793cm" fill-opacity="1" color-interpolation="auto" color-rendering="auto" font-size="12" viewBox="0 0 1229 844" fill="black" xmlns:xlink="http://www.w3.org/1999/xlink" stroke="black" image-rendering="auto" stroke-miterlimit="10" stroke-linecap="square" stroke-linejoin="miter" font-style="normal" stroke-width="1" height="21.52793364955174cm" stroke-dashoffset="0" font-weight="normal" stroke-opacity="1">
  <!--Generated by the Batik Graphics2D SVG Generator-->
  <defs id="genericDefs" />
  <g>
    <g stroke-linecap="butt" fill="rgb(255,175,175)" text-rendering="geometricPrecision" stroke-linejoin="bevel" stroke-dasharray="2,2" stroke="rgb(255,175,175)" stroke-width="0.7" stroke-miterlimit="8">
      <line y2="844" fill="none" x1="-29" x2="-29" y1="0" />
      <line y2="844" fill="none" x1="69" x2="69" y1="0" />
      <line y2="844" fill="none" x1="167" x2="167" y1="0" />
      <line y2="844" fill="none" x1="264" x2="264" y1="0" />
      <line y2="844" fill="none" x1="362" x2="362" y1="0" />
      <line y2="844" fill="none" x1="460" x2="460" y1="0" />
      <line y2="844" fill="none" x1="558" x2="558" y1="0" />
      <line y2="844" fill="none" x1="655" x2="655" y1="0" />
      <line y2="844" fill="none" x1="753" x2="753" y1="0" />
      <line y2="844" fill="none" x1="851" x2="851" y1="0" />
      <line y2="844" fill="none" x1="949" x2="949" y1="0" />
      <line y2="844" fill="none" x1="1046" x2="1046" y1="0" />
      <line y2="844" fill="none" x1="1144" x2="1144" y1="0" />
      <line y2="844" fill="none" x1="1242" x2="1242" y1="0" />
      <line y2="844" fill="none" x1="1340" x2="1340" y1="0" />
      <line y2="844" fill="none" x1="1437" x2="1437" y1="0" />
      <line y2="-8" fill="none" x1="0" x2="1229" y1="-8" />
      <line y2="90" fill="none" x1="0" x2="1229" y1="90" />
      <line y2="188" fill="none" x1="0" x2="1229" y1="188" />
      <line y2="286" fill="none" x1="0" x2="1229" y1="286" />
      <line y2="384" fill="none" x1="0" x2="1229" y1="384" />
      <line y2="482" fill="none" x1="0" x2="1229" y1="482" />
      <line y2="580" fill="none" x1="0" x2="1229" y1="580" />
      <line y2="678" fill="none" x1="0" x2="1229" y1="678" />
      <line y2="776" fill="none" x1="0" x2="1229" y1="776" />
      <line y2="875" fill="none" x1="0" x2="1229" y1="875" />
      <line y2="973" fill="none" x1="0" x2="1229" y1="973" />
      <line y2="1071" fill="none" x1="0" x2="1229" y1="1071" />
    </g>
    <g fill-opacity="0" fill="rgb(0,255,0)" text-rendering="geometricPrecision" stroke="rgb(0,255,0)" stroke-width="1.4" stroke-opacity="0">
      <ellipse rx="1466" ry="1470" cx="460" cy="482" stroke="none" />
    </g>
    <g fill-opacity="0.251" fill="rgb(0,0,255)" text-rendering="geometricPrecision" stroke="rgb(0,0,255)" stroke-width="1.4" stroke-opacity="0.251">
      <ellipse rx="1466" fill="none" ry="1470" cx="460" cy="482" />
    </g>
    <g font-size="15" fill-opacity="0" fill="rgb(0,0,0)" text-rendering="geometricPrecision" stroke="rgb(0,0,0)" stroke-width="0.7" stroke-opacity="0">
      <text xml:space="preserve" x="-860" y="482" stroke="none">k</text>
      <text xml:space="preserve" x="-852" font-size="13" y="486" stroke="none">a</text>
    </g>
    <g fill="blue" text-rendering="geometricPrecision" stroke-width="1.4" font-size="13" stroke="blue">
      <line y2="482" fill="none" x1="276" x2="460" y1="-10" />
    </g>
    <g font-size="15" fill-opacity="0" fill="rgb(0,0,0)" text-rendering="geometricPrecision" stroke="rgb(0,0,0)" stroke-width="0.7" stroke-opacity="0">
      <text xml:space="preserve" x="286" y="15" stroke="none">r+</text>
    </g>
    <g font-size="15" fill-opacity="0.4" fill="rgb(0,0,255)" text-rendering="geometricPrecision" stroke="rgb(0,0,255)" stroke-width="1.4" stroke-opacity="0.4">
      <line y2="-1381" fill="none" x1="-10" x2="1239" y1="-911" />
    </g>
    <g font-size="15" fill-opacity="0" fill="rgb(0,0,0)" text-rendering="geometricPrecision" stroke="rgb(0,0,0)" stroke-width="0.7" stroke-opacity="0">
      <text xml:space="preserve" x="-2421" y="17" stroke="none">f</text>
      <ellipse fill="rgb(0,255,0)" rx="195.5" cx="-54.5" ry="196" cy="-894" stroke="none" stroke-width="1.4" />
    </g>
    <g font-size="15" fill-opacity="0.4" fill="rgb(0,0,255)" text-rendering="geometricPrecision" stroke="rgb(0,0,255)" stroke-width="1.4" stroke-opacity="0.4">
      <ellipse rx="195.5" fill="none" ry="196" cx="-54.5" cy="-894" />
    </g>
    <g font-size="15" fill-opacity="0" fill="rgb(0,0,0)" text-rendering="geometricPrecision" stroke="rgb(0,0,0)" stroke-width="0.7" stroke-opacity="0">
      <text xml:space="preserve" x="-231" y="-894" stroke="none">k</text>
      <text xml:space="preserve" x="-223" font-size="13" y="-890" stroke="none">b</text>
    </g>
    <g fill="blue" text-rendering="geometricPrecision" stroke-width="1.4" font-size="13" stroke="blue">
      <line y2="482" fill="none" x1="-10" x2="460" y1="482" />
    </g>
    <g font-size="15" fill-opacity="0" fill="rgb(0,0,0)" text-rendering="geometricPrecision" stroke="rgb(0,0,0)" stroke-width="0.7" stroke-opacity="0">
      <text xml:space="preserve" x="207" y="482" stroke="none">d</text>
    </g>
    <g font-size="15" fill-opacity="0.1961" fill="rgb(255,127,0)" text-rendering="geometricPrecision" stroke="rgb(255,127,0)" stroke-width="1.4" stroke-opacity="0.1961">
      <path d="M432.0473 409.2139 C401.8993 420.8608 382 450.0001 382 482.5 L460 482.5 Z" stroke="none" />
      <path fill="none" fill-opacity="0.3922" d="M432.0473 409.2139 C401.8993 420.8608 382 450.0001 382 482.5" stroke-opacity="0.3922" />
    </g>
    <g text-rendering="geometricPrecision" stroke-width="0.7" font-size="15">
      <text xml:space="preserve" x="417" y="453" stroke="none">α</text>
      <text xml:space="preserve" x="509" y="-841" stroke="none">E = (r * cos(α)|r * sin(α))</text>
    </g>
    <g font-size="15" fill-opacity="0" fill="rgb(200,200,200)" text-rendering="geometricPrecision" stroke="rgb(200,200,200)" stroke-width="0.7" stroke-opacity="0">
      <rect fill="none" width="188" x="507" height="20" y="-857" />
    </g>
    <g fill="blue" text-rendering="geometricPrecision" stroke-width="1.4" font-size="15" stroke="blue">
      <line y2="854" fill="none" x1="485" x2="808" y1="-10" />
    </g>
    <g font-size="15" fill-opacity="0" fill="rgb(0,0,0)" text-rendering="geometricPrecision" stroke="rgb(0,0,0)" stroke-width="0.7" stroke-opacity="0">
      <text xml:space="preserve" x="818" y="819" stroke="none">n</text>
    </g>
    <g fill="blue" text-rendering="geometricPrecision" stroke-width="1.4" font-size="15" stroke="blue">
      <line y2="482" fill="none" x1="753" x2="753" y1="286" />
    </g>
    <g font-size="15" fill-opacity="0" fill="rgb(0,0,0)" text-rendering="geometricPrecision" stroke="rgb(0,0,0)" stroke-width="0.7" stroke-opacity="0">
      <text xml:space="preserve" x="744" y="384" stroke="none">h</text>
    </g>
    <g font-size="15" fill-opacity="0.502" fill="rgb(0,0,255)" text-rendering="geometricPrecision" stroke="rgb(0,0,255)" stroke-width="1.4" stroke-opacity="0.502">
      <line y2="286" fill="none" x1="-10" x2="1239" y1="286" />
    </g>
    <g font-size="15" fill-opacity="0" fill="rgb(0,0,0)" text-rendering="geometricPrecision" stroke="rgb(0,0,0)" stroke-width="0.7" stroke-opacity="0">
      <text xml:space="preserve" x="10" y="286" stroke="none">i</text>
    </g>
    <g fill="blue" text-rendering="geometricPrecision" stroke-width="1.4" font-size="15" stroke="blue">
      <line y2="482" fill="none" x1="949" x2="949" y1="286" />
    </g>
    <g font-size="15" fill-opacity="0" fill="rgb(0,0,0)" text-rendering="geometricPrecision" stroke="rgb(0,0,0)" stroke-width="0.7" stroke-opacity="0">
      <text xml:space="preserve" x="943" y="384" stroke="none">j</text>
    </g>
    <g font-size="15" fill-opacity="0.349" fill="rgb(0,0,255)" text-rendering="geometricPrecision" stroke="rgb(0,0,255)" stroke-width="1.4" stroke-opacity="0.349">
      <line y2="482" fill="none" x1="-10" x2="1239" y1="482" />
    </g>
    <g font-size="15" fill-opacity="0" fill="rgb(0,0,0)" text-rendering="geometricPrecision" stroke="rgb(0,0,0)" stroke-width="0.7" stroke-opacity="0">
      <text xml:space="preserve" x="1212" y="482" stroke="none">k</text>
    </g>
    <g fill="red" text-rendering="geometricPrecision" stroke-width="1.4" font-size="15" stroke="red">
      <line y2="482" fill="none" x1="276" x2="460" y1="-10" />
      <text x="195" y="-206" fill="black" stroke="none" stroke-width="0.7" xml:space="preserve">r</text>
      <line fill="none" x1="-10" x2="128" y1="-911" y2="-963" stroke="rgb(0,128,64)" />
      <text x="21" y="-929" fill="black" stroke="none" stroke-width="0.7" xml:space="preserve">r</text>
    </g>
    <g text-rendering="geometricPrecision" stroke-width="0.7" font-size="13">
      <text xml:space="preserve" x="27" y="-925" stroke="none">e</text>
    </g>
    <g font-size="13" fill-opacity="0.502" fill="rgb(0,0,255)" text-rendering="geometricPrecision" stroke="rgb(0,0,255)" stroke-width="1.4" stroke-opacity="0.502">
      <line y2="286" fill="none" x1="128" x2="128" y1="-10" />
    </g>
    <g font-size="15" fill-opacity="0" fill="rgb(0,0,0)" text-rendering="geometricPrecision" stroke="rgb(0,0,0)" stroke-width="0.7" stroke-opacity="0">
      <text xml:space="preserve" x="119" y="-338" stroke="none">g</text>
      <ellipse fill="rgb(0,255,0)" rx="195.5" cx="128.5" ry="196" cy="-963" stroke="none" stroke-width="1.4" />
    </g>
    <g font-size="15" fill-opacity="0.302" fill="rgb(0,0,255)" text-rendering="geometricPrecision" stroke="rgb(0,0,255)" stroke-width="1.4" stroke-opacity="0.302">
      <ellipse rx="195.5" fill="none" ry="196" cx="128.5" cy="-963" />
    </g>
    <g font-size="15" fill-opacity="0" fill="rgb(0,0,0)" text-rendering="geometricPrecision" stroke="rgb(0,0,0)" stroke-width="0.7" stroke-opacity="0">
      <text xml:space="preserve" x="-48" y="-963" stroke="none">k</text>
      <text xml:space="preserve" x="-40" font-size="13" y="-959" stroke="none">c</text>
    </g>
    <g fill="blue" text-rendering="geometricPrecision" stroke-width="1.4" font-size="13" stroke="blue">
      <line y2="854" fill="none" x1="693" x2="1016" y1="-10" />
    </g>
    <g font-size="15" fill-opacity="0" fill="rgb(0,0,0)" text-rendering="geometricPrecision" stroke="rgb(0,0,0)" stroke-width="0.7" stroke-opacity="0">
      <text xml:space="preserve" x="1026" y="821" stroke="none">a</text>
    </g>
    <g fill="blue" text-rendering="geometricPrecision" stroke-width="1.4" font-size="15" stroke="blue">
      <line y2="286" fill="none" x1="753" x2="949" y1="286" />
    </g>
    <g font-size="15" fill-opacity="0" fill="rgb(0,0,0)" text-rendering="geometricPrecision" stroke="rgb(0,0,0)" stroke-width="0.7" stroke-opacity="0">
      <text xml:space="preserve" x="845" y="286" stroke="none">l</text>
    </g>
    <g fill="blue" text-rendering="geometricPrecision" stroke-width="1.4" font-size="15" stroke="blue">
      <line y2="482" fill="none" x1="753" x2="949" y1="482" />
    </g>
    <g font-size="15" fill-opacity="0" fill="rgb(0,0,0)" text-rendering="geometricPrecision" stroke="rgb(0,0,0)" stroke-width="0.7" stroke-opacity="0">
      <text xml:space="preserve" x="839" y="482" stroke="none">m</text>
    </g>
    <g fill="red" text-rendering="geometricPrecision" stroke-width="2.1" font-size="15" stroke="red">
      <line y2="485" fill="none" x1="457" x2="463" y1="479" />
      <line y2="485" fill="none" x1="463" x2="457" y1="479" />
      <text x="460" y="472" fill="black" stroke="none" stroke-width="0.7" xml:space="preserve">M</text>
      <line fill="none" x1="-58" x2="-52" y1="-897" y2="-891" stroke="rgb(255,150,0)" />
      <line fill="none" x1="-52" x2="-58" y1="-897" y2="-891" stroke="rgb(255,150,0)" />
      <text x="-55" y="-904" fill="black" stroke="none" stroke-width="0.7" xml:space="preserve">E</text>
      <line fill="none" x1="-241" x2="-235" y1="-828" y2="-822" stroke="gray" />
      <line fill="none" x1="-235" x2="-241" y1="-828" y2="-822" stroke="gray" />
      <text x="-238" y="-835" fill="black" stroke="none" stroke-width="0.7" xml:space="preserve">F</text>
      <line fill="none" x1="125" x2="131" y1="-966" y2="-960" stroke="gray" />
      <line fill="none" x1="131" x2="125" y1="-966" y2="-960" stroke="gray" />
      <text x="128" y="-973" fill="black" stroke="none" stroke-width="0.7" xml:space="preserve">H</text>
    </g>
    <g font-size="15" fill-opacity="0" fill="rgb(255,0,0)" text-rendering="geometricPrecision" stroke="rgb(255,0,0)" stroke-width="2.1" stroke-opacity="0">
      <line y2="485" fill="none" x1="-32" x2="-26" y1="479" />
      <line y2="485" fill="none" x1="-26" x2="-32" y1="479" />
      <text x="-29" y="472" fill="rgb(0,0,0)" stroke="none" stroke-width="0.7" xml:space="preserve">K</text>
    </g>
    <g fill="rgb(0,128,64)" text-rendering="geometricPrecision" stroke-width="2.1" font-size="15" stroke="rgb(0,128,64)">
      <line y2="485" fill="none" x1="750" x2="756" y1="479" />
      <line y2="485" fill="none" x1="756" x2="750" y1="479" />
      <text x="753" y="472" fill="black" stroke="none" stroke-width="0.7" xml:space="preserve">A</text>
    </g>
    <g font-size="15" fill-opacity="0" fill="rgb(255,0,0)" text-rendering="geometricPrecision" stroke="rgb(255,0,0)" stroke-width="2.1" stroke-opacity="0">
      <line y2="289" fill="none" x1="750" x2="756" y1="283" />
      <line y2="289" fill="none" x1="756" x2="750" y1="283" />
    </g>
    <g text-rendering="geometricPrecision" stroke-width="0.7" font-size="15">
      <text xml:space="preserve" x="753" y="276" stroke="none">D</text>
    </g>
    <g font-size="15" fill-opacity="0" fill="rgb(255,0,0)" text-rendering="geometricPrecision" stroke="rgb(255,0,0)" stroke-width="2.1" stroke-opacity="0">
      <line y2="289" fill="none" x1="946" x2="952" y1="283" />
      <line y2="289" fill="none" x1="952" x2="946" y1="283" />
    </g>
    <g text-rendering="geometricPrecision" stroke-width="0.7" font-size="15">
      <text xml:space="preserve" x="949" y="276" stroke="none">C</text>
    </g>
    <g font-size="15" fill-opacity="0" fill="rgb(255,0,0)" text-rendering="geometricPrecision" stroke="rgb(255,0,0)" stroke-width="2.1" stroke-opacity="0">
      <line y2="485" fill="none" x1="946" x2="952" y1="479" />
      <line y2="485" fill="none" x1="952" x2="946" y1="479" />
    </g>
    <g text-rendering="geometricPrecision" stroke-width="0.7" font-size="15">
      <text xml:space="preserve" x="949" y="472" stroke="none">B</text>
      <line fill="none" x1="592" x2="598" y1="283" y2="289" stroke="gray" stroke-width="2.1" />
      <line fill="none" x1="598" x2="592" y1="283" y2="289" stroke="gray" stroke-width="2.1" />
      <text xml:space="preserve" x="595" y="276" stroke="none">H</text>
      <text xml:space="preserve" x="606" font-size="13" y="280" stroke="none">D</text>
      <line fill="none" x1="666" x2="672" y1="479" y2="485" stroke="gray" stroke-width="2.1" />
      <line fill="none" x1="672" x2="666" y1="479" y2="485" stroke="gray" stroke-width="2.1" />
      <text xml:space="preserve" x="669" y="472" stroke="none">H</text>
      <text xml:space="preserve" x="680" font-size="13" y="476" stroke="none">A</text>
      <line fill="none" x1="125" x2="131" y1="283" y2="289" stroke="gray" stroke-width="2.1" />
      <line fill="none" x1="131" x2="125" y1="283" y2="289" stroke="gray" stroke-width="2.1" />
      <text xml:space="preserve" x="128" y="276" stroke="none">L</text>
      <line fill="none" x1="308" x2="314" y1="-1035" y2="-1029" stroke="gray" stroke-width="2.1" />
      <line fill="none" x1="314" x2="308" y1="-1035" y2="-1029" stroke="gray" stroke-width="2.1" />
      <text xml:space="preserve" x="311" y="-1042" stroke="none">G</text>
      <line fill="none" x1="801" x2="807" y1="283" y2="289" stroke="gray" stroke-width="2.1" />
      <line fill="none" x1="807" x2="801" y1="283" y2="289" stroke="gray" stroke-width="2.1" />
      <text xml:space="preserve" x="804" y="276" stroke="none">G</text>
      <text xml:space="preserve" x="816" font-size="13" y="280" stroke="none">D</text>
      <line fill="none" x1="874" x2="880" y1="479" y2="485" stroke="gray" stroke-width="2.1" />
      <line fill="none" x1="880" x2="874" y1="479" y2="485" stroke="gray" stroke-width="2.1" />
      <text xml:space="preserve" x="877" y="472" stroke="none">G</text>
      <text xml:space="preserve" x="889" font-size="13" y="476" stroke="none">A</text>
    </g>
  </g>
</svg>
