<?xml version="1.0" encoding="UTF-8"?>

<!DOCTYPE svg PUBLIC '-//W3C//DTD SVG 1.0//EN' 'http://www.w3.org/TR/2001/REC-SVG-20010904/DTD/svg10.dtd'>
<svg stroke-dasharray="none" shape-rendering="auto" xmlns="http://www.w3.org/2000/svg" font-family="&apos;Dialog&apos;" text-rendering="auto" width="32.99999999999983cm" fill-opacity="1" color-interpolation="auto" color-rendering="auto" font-size="12" viewBox="0 0 1229 844" fill="black" xmlns:xlink="http://www.w3.org/1999/xlink" stroke="black" image-rendering="auto" stroke-miterlimit="10" stroke-linecap="square" stroke-linejoin="miter" font-style="normal" stroke-width="1" height="22.624999999999925cm" stroke-dashoffset="0" font-weight="normal" stroke-opacity="1">
  <!--Generated by the Batik Graphics2D SVG Generator-->
  <defs id="genericDefs" />
  <g>
    <g stroke-linecap="butt" fill="rgb(255,175,175)" text-rendering="geometricPrecision" stroke-linejoin="bevel" stroke-dasharray="2,2" stroke="rgb(255,175,175)" stroke-width="0.7" stroke-miterlimit="8">
      <line y2="844" fill="none" x1="-58" x2="-58" y1="0" />
      <line y2="844" fill="none" x1="35" x2="35" y1="0" />
      <line y2="844" fill="none" x1="128" x2="128" y1="0" />
      <line y2="844" fill="none" x1="221" x2="221" y1="0" />
      <line y2="844" fill="none" x1="314" x2="314" y1="0" />
      <line y2="844" fill="none" x1="407" x2="407" y1="0" />
      <line y2="844" fill="none" x1="500" x2="500" y1="0" />
      <line y2="844" fill="none" x1="593" x2="593" y1="0" />
      <line y2="844" fill="none" x1="686" x2="686" y1="0" />
      <line y2="844" fill="none" x1="780" x2="780" y1="0" />
      <line y2="844" fill="none" x1="873" x2="873" y1="0" />
      <line y2="844" fill="none" x1="966" x2="966" y1="0" />
      <line y2="844" fill="none" x1="1059" x2="1059" y1="0" />
      <line y2="844" fill="none" x1="1152" x2="1152" y1="0" />
      <line y2="844" fill="none" x1="1245" x2="1245" y1="0" />
      <line y2="844" fill="none" x1="1338" x2="1338" y1="0" />
      <line y2="-109" fill="none" x1="0" x2="1229" y1="-109" />
      <line y2="-15" fill="none" x1="0" x2="1229" y1="-15" />
      <line y2="78" fill="none" x1="0" x2="1229" y1="78" />
      <line y2="171" fill="none" x1="0" x2="1229" y1="171" />
      <line y2="265" fill="none" x1="0" x2="1229" y1="265" />
      <line y2="358" fill="none" x1="0" x2="1229" y1="358" />
      <line y2="451" fill="none" x1="0" x2="1229" y1="451" />
      <line y2="544" fill="none" x1="0" x2="1229" y1="544" />
      <line y2="638" fill="none" x1="0" x2="1229" y1="638" />
      <line y2="731" fill="none" x1="0" x2="1229" y1="731" />
      <line y2="824" fill="none" x1="0" x2="1229" y1="824" />
      <line y2="917" fill="none" x1="0" x2="1229" y1="917" />
    </g>
    <g fill-opacity="0" fill="rgb(0,255,0)" text-rendering="geometricPrecision" stroke="rgb(0,255,0)" stroke-width="1.4" stroke-opacity="0">
      <ellipse rx="1396.5" ry="1399" cx="407.5" cy="544" stroke="none" />
    </g>
    <g fill-opacity="0.251" fill="rgb(0,0,255)" text-rendering="geometricPrecision" stroke="rgb(0,0,255)" stroke-width="1.4" stroke-opacity="0.251">
      <ellipse rx="1396.5" fill="none" ry="1399" cx="407.5" cy="544" />
    </g>
    <g font-size="15" fill-opacity="0" fill="rgb(0,0,0)" text-rendering="geometricPrecision" stroke="rgb(0,0,0)" stroke-width="0.7" stroke-opacity="0">
      <text xml:space="preserve" x="-850" y="544" stroke="none">k</text>
      <text xml:space="preserve" x="-842" font-size="13" y="548" stroke="none">a</text>
    </g>
    <g fill="blue" text-rendering="geometricPrecision" stroke-width="1.4" font-size="13" stroke="blue">
      <line y2="544" fill="none" x1="-121" x2="407" y1="-10" />
    </g>
    <g font-size="15" fill-opacity="0" fill="rgb(0,0,0)" text-rendering="geometricPrecision" stroke="rgb(0,0,0)" stroke-width="0.7" stroke-opacity="0">
      <text xml:space="preserve" x="10" y="107" stroke="none">r+</text>
    </g>
    <g font-size="15" fill-opacity="0.4" fill="rgb(0,0,255)" text-rendering="geometricPrecision" stroke="rgb(0,0,255)" stroke-width="1.4" stroke-opacity="0.4">
      <line y2="-2185" fill="none" x1="-10" x2="1239" y1="-991" />
    </g>
    <g font-size="15" fill-opacity="0" fill="rgb(0,0,0)" text-rendering="geometricPrecision" stroke="rgb(0,0,0)" stroke-width="0.7" stroke-opacity="0">
      <text xml:space="preserve" x="-1051" y="17" stroke="none">f</text>
      <ellipse fill="rgb(0,255,0)" rx="186" cx="-557" ry="186.5" cy="-467.5" stroke="none" stroke-width="1.4" />
    </g>
    <g font-size="15" fill-opacity="0.4" fill="rgb(0,0,255)" text-rendering="geometricPrecision" stroke="rgb(0,0,255)" stroke-width="1.4" stroke-opacity="0.4">
      <ellipse rx="186" fill="none" ry="186.5" cx="-557" cy="-467.5" />
    </g>
    <g font-size="15" fill-opacity="0" fill="rgb(0,0,0)" text-rendering="geometricPrecision" stroke="rgb(0,0,0)" stroke-width="0.7" stroke-opacity="0">
      <text xml:space="preserve" x="-725" y="-468" stroke="none">k</text>
      <text xml:space="preserve" x="-717" font-size="13" y="-464" stroke="none">b</text>
    </g>
    <g fill="blue" text-rendering="geometricPrecision" stroke-width="1.4" font-size="13" stroke="blue">
      <line y2="544" fill="none" x1="-10" x2="407" y1="544" />
    </g>
    <g font-size="15" fill-opacity="0" fill="rgb(0,0,0)" text-rendering="geometricPrecision" stroke="rgb(0,0,0)" stroke-width="0.7" stroke-opacity="0">
      <text xml:space="preserve" x="165" y="544" stroke="none">d</text>
    </g>
    <g font-size="15" fill-opacity="0.1961" fill="rgb(255,127,0)" text-rendering="geometricPrecision" stroke="rgb(255,127,0)" stroke-width="1.4" stroke-opacity="0.1961">
      <path d="M355.5953 490.9092 C341.1553 504.9479 333 524.2904 333 544.5 L407 544.5 Z" stroke="none" />
      <path fill="none" fill-opacity="0.3922" d="M355.5953 490.9092 C341.1553 504.9479 333 524.2904 333 544.5" stroke-opacity="0.3922" />
    </g>
    <g text-rendering="geometricPrecision" stroke-width="0.7" font-size="15">
      <text xml:space="preserve" x="361" y="525" stroke="none">α</text>
      <text xml:space="preserve" x="454" y="-715" stroke="none">E = (r * cos(α)|r * sin(α))</text>
    </g>
    <g font-size="15" fill-opacity="0" fill="rgb(200,200,200)" text-rendering="geometricPrecision" stroke="rgb(200,200,200)" stroke-width="0.7" stroke-opacity="0">
      <rect fill="none" width="188" x="452" height="20" y="-731" />
    </g>
    <g fill="blue" text-rendering="geometricPrecision" stroke-width="1.4" font-size="15" stroke="blue">
      <line y2="854" fill="none" x1="136" x2="960" y1="-10" />
    </g>
    <g font-size="15" fill-opacity="0" fill="rgb(0,0,0)" text-rendering="geometricPrecision" stroke="rgb(0,0,0)" stroke-width="0.7" stroke-opacity="0">
      <text xml:space="preserve" x="970" y="819" stroke="none">n</text>
    </g>
    <g fill="blue" text-rendering="geometricPrecision" stroke-width="1.4" font-size="15" stroke="blue">
      <line y2="544" fill="none" x1="686" x2="686" y1="358" />
    </g>
    <g font-size="15" fill-opacity="0" fill="rgb(0,0,0)" text-rendering="geometricPrecision" stroke="rgb(0,0,0)" stroke-width="0.7" stroke-opacity="0">
      <text xml:space="preserve" x="677" y="451" stroke="none">h</text>
    </g>
    <g font-size="15" fill-opacity="0.502" fill="rgb(0,0,255)" text-rendering="geometricPrecision" stroke="rgb(0,0,255)" stroke-width="1.4" stroke-opacity="0.502">
      <line y2="358" fill="none" x1="-10" x2="1239" y1="358" />
    </g>
    <g font-size="15" fill-opacity="0" fill="rgb(0,0,0)" text-rendering="geometricPrecision" stroke="rgb(0,0,0)" stroke-width="0.7" stroke-opacity="0">
      <text xml:space="preserve" x="10" y="358" stroke="none">i</text>
    </g>
    <g fill="blue" text-rendering="geometricPrecision" stroke-width="1.4" font-size="15" stroke="blue">
      <line y2="544" fill="none" x1="873" x2="873" y1="358" />
    </g>
    <g font-size="15" fill-opacity="0" fill="rgb(0,0,0)" text-rendering="geometricPrecision" stroke="rgb(0,0,0)" stroke-width="0.7" stroke-opacity="0">
      <text xml:space="preserve" x="867" y="451" stroke="none">j</text>
    </g>
    <g font-size="15" fill-opacity="0.349" fill="rgb(0,0,255)" text-rendering="geometricPrecision" stroke="rgb(0,0,255)" stroke-width="1.4" stroke-opacity="0.349">
      <line y2="544" fill="none" x1="-10" x2="1239" y1="544" />
    </g>
    <g font-size="15" fill-opacity="0" fill="rgb(0,0,0)" text-rendering="geometricPrecision" stroke="rgb(0,0,0)" stroke-width="0.7" stroke-opacity="0">
      <text xml:space="preserve" x="1212" y="544" stroke="none">k</text>
    </g>
    <g fill="red" text-rendering="geometricPrecision" stroke-width="1.4" font-size="15" stroke="red">
      <line y2="544" fill="none" x1="-121" x2="407" y1="-10" />
      <text x="-83" y="38" fill="black" stroke="none" stroke-width="0.7" xml:space="preserve">r</text>
      <line fill="none" x1="-10" x2="-422" y1="-991" y2="-596" stroke="rgb(0,128,64)" />
      <text x="-506" y="-532" fill="black" stroke="none" stroke-width="0.7" xml:space="preserve">r</text>
    </g>
    <g text-rendering="geometricPrecision" stroke-width="0.7" font-size="13">
      <text xml:space="preserve" x="-500" y="-528" stroke="none">e</text>
    </g>
    <g font-size="13" fill-opacity="0.502" fill="rgb(0,0,255)" text-rendering="geometricPrecision" stroke="rgb(0,0,255)" stroke-width="1.4" stroke-opacity="0.502">
      <line y2="358" fill="none" x1="-422" x2="-422" y1="-10" />
    </g>
    <g font-size="15" fill-opacity="0" fill="rgb(0,0,0)" text-rendering="geometricPrecision" stroke="rgb(0,0,0)" stroke-width="0.7" stroke-opacity="0">
      <text xml:space="preserve" x="-431" y="-119" stroke="none">g</text>
      <ellipse fill="rgb(0,255,0)" rx="186" cx="-423" ry="186.5" cy="-596.5" stroke="none" stroke-width="1.4" />
    </g>
    <g font-size="15" fill-opacity="0.302" fill="rgb(0,0,255)" text-rendering="geometricPrecision" stroke="rgb(0,0,255)" stroke-width="1.4" stroke-opacity="0.302">
      <ellipse rx="186" fill="none" ry="186.5" cx="-423" cy="-596.5" />
    </g>
    <g font-size="15" fill-opacity="0" fill="rgb(0,0,0)" text-rendering="geometricPrecision" stroke="rgb(0,0,0)" stroke-width="0.7" stroke-opacity="0">
      <text xml:space="preserve" x="-590" y="-596" stroke="none">k</text>
      <text xml:space="preserve" x="-582" font-size="13" y="-592" stroke="none">c</text>
    </g>
    <g fill="blue" text-rendering="geometricPrecision" stroke-width="1.4" font-size="13" stroke="blue">
      <line y2="854" fill="none" x1="394" x2="1217" y1="-10" />
    </g>
    <g font-size="15" fill-opacity="0" fill="rgb(0,0,0)" text-rendering="geometricPrecision" stroke="rgb(0,0,0)" stroke-width="0.7" stroke-opacity="0">
      <text xml:space="preserve" x="1211" y="821" stroke="none">a</text>
    </g>
    <g fill="blue" text-rendering="geometricPrecision" stroke-width="1.4" font-size="15" stroke="blue">
      <line y2="358" fill="none" x1="686" x2="873" y1="358" />
    </g>
    <g font-size="15" fill-opacity="0" fill="rgb(0,0,0)" text-rendering="geometricPrecision" stroke="rgb(0,0,0)" stroke-width="0.7" stroke-opacity="0">
      <text xml:space="preserve" x="774" y="358" stroke="none">l</text>
    </g>
    <g fill="blue" text-rendering="geometricPrecision" stroke-width="1.4" font-size="15" stroke="blue">
      <line y2="544" fill="none" x1="686" x2="873" y1="544" />
    </g>
    <g font-size="15" fill-opacity="0" fill="rgb(0,0,0)" text-rendering="geometricPrecision" stroke="rgb(0,0,0)" stroke-width="0.7" stroke-opacity="0">
      <text xml:space="preserve" x="768" y="544" stroke="none">m</text>
    </g>
    <g font-size="15" fill-opacity="0.1961" fill="rgb(255,127,0)" text-rendering="geometricPrecision" stroke="rgb(255,127,0)" stroke-width="1.4" stroke-opacity="0.1961">
      <path d="M883.0991 503.717 C872.1716 514.2696 866 528.8089 866 544 L922 544 Z" stroke="none" />
      <path fill="none" fill-opacity="0.3922" d="M883.0991 503.717 C872.1716 514.2696 866 528.8089 866 544" stroke-opacity="0.3922" />
    </g>
    <g text-rendering="geometricPrecision" stroke-width="0.7" font-size="15">
      <text xml:space="preserve" x="888" y="530" stroke="none">α</text>
    </g>
    <g font-size="15" fill-opacity="0.1961" fill="rgb(255,127,0)" text-rendering="geometricPrecision" stroke="rgb(255,127,0)" stroke-width="1.4" stroke-opacity="0.1961">
      <path d="M512.7023 384.4753 C519.9224 377.4088 524 367.6726 524 357.5 L487 357.5 Z" stroke="none" />
      <path fill="none" fill-opacity="0.3922" d="M512.7023 384.4753 C519.9224 377.4088 524 367.6726 524 357.5" stroke-opacity="0.3922" />
    </g>
    <g text-rendering="geometricPrecision" stroke-width="0.7" font-size="15">
      <text xml:space="preserve" x="510" y="368" stroke="none">α</text>
      <line fill="none" x1="404" x2="410" y1="541" y2="547" stroke="red" stroke-width="2.1" />
      <line fill="none" x1="410" x2="404" y1="541" y2="547" stroke="red" stroke-width="2.1" />
      <text xml:space="preserve" x="407" y="534" stroke="none">M</text>
      <line fill="none" x1="-560" x2="-554" y1="-471" y2="-465" stroke="rgb(255,150,0)" stroke-width="2.1" />
      <line fill="none" x1="-554" x2="-560" y1="-471" y2="-465" stroke="rgb(255,150,0)" stroke-width="2.1" />
      <text xml:space="preserve" x="-557" y="-478" stroke="none">E</text>
      <line fill="none" x1="-695" x2="-689" y1="-342" y2="-336" stroke="gray" stroke-width="2.1" />
      <line fill="none" x1="-689" x2="-695" y1="-342" y2="-336" stroke="gray" stroke-width="2.1" />
      <text xml:space="preserve" x="-692" y="-349" stroke="none">F</text>
      <line fill="none" x1="-425" x2="-419" y1="-599" y2="-593" stroke="gray" stroke-width="2.1" />
      <line fill="none" x1="-419" x2="-425" y1="-599" y2="-593" stroke="gray" stroke-width="2.1" />
      <text xml:space="preserve" x="-422" y="-606" stroke="none">H</text>
    </g>
    <g font-size="15" fill-opacity="0" fill="rgb(255,0,0)" text-rendering="geometricPrecision" stroke="rgb(255,0,0)" stroke-width="2.1" stroke-opacity="0">
      <line y2="547" fill="none" x1="-61" x2="-55" y1="541" />
      <line y2="547" fill="none" x1="-55" x2="-61" y1="541" />
      <text x="-58" y="534" fill="rgb(0,0,0)" stroke="none" stroke-width="0.7" xml:space="preserve">K</text>
    </g>
    <g fill="rgb(0,128,64)" text-rendering="geometricPrecision" stroke-width="2.1" font-size="15" stroke="rgb(0,128,64)">
      <line y2="547" fill="none" x1="683" x2="689" y1="541" />
      <line y2="547" fill="none" x1="689" x2="683" y1="541" />
      <text x="686" y="534" fill="black" stroke="none" stroke-width="0.7" xml:space="preserve">A</text>
    </g>
    <g font-size="15" fill-opacity="0" fill="rgb(255,0,0)" text-rendering="geometricPrecision" stroke="rgb(255,0,0)" stroke-width="2.1" stroke-opacity="0">
      <line y2="361" fill="none" x1="683" x2="689" y1="355" />
      <line y2="361" fill="none" x1="689" x2="683" y1="355" />
    </g>
    <g text-rendering="geometricPrecision" stroke-width="0.7" font-size="15">
      <text xml:space="preserve" x="686" y="348" stroke="none">D</text>
    </g>
    <g font-size="15" fill-opacity="0" fill="rgb(255,0,0)" text-rendering="geometricPrecision" stroke="rgb(255,0,0)" stroke-width="2.1" stroke-opacity="0">
      <line y2="361" fill="none" x1="870" x2="876" y1="355" />
      <line y2="361" fill="none" x1="876" x2="870" y1="355" />
    </g>
    <g text-rendering="geometricPrecision" stroke-width="0.7" font-size="15">
      <text xml:space="preserve" x="873" y="348" stroke="none">C</text>
    </g>
    <g font-size="15" fill-opacity="0" fill="rgb(255,0,0)" text-rendering="geometricPrecision" stroke="rgb(255,0,0)" stroke-width="2.1" stroke-opacity="0">
      <line y2="547" fill="none" x1="870" x2="876" y1="541" />
      <line y2="547" fill="none" x1="876" x2="870" y1="541" />
    </g>
    <g text-rendering="geometricPrecision" stroke-width="0.7" font-size="15">
      <text xml:space="preserve" x="873" y="534" stroke="none">B</text>
      <line fill="none" x1="484" x2="490" y1="355" y2="361" stroke="gray" stroke-width="2.1" />
      <line fill="none" x1="490" x2="484" y1="355" y2="361" stroke="gray" stroke-width="2.1" />
      <text xml:space="preserve" x="487" y="348" stroke="none">H</text>
      <text xml:space="preserve" x="498" font-size="13" y="352" stroke="none">D</text>
      <line fill="none" x1="662" x2="668" y1="541" y2="547" stroke="gray" stroke-width="2.1" />
      <line fill="none" x1="668" x2="662" y1="541" y2="547" stroke="gray" stroke-width="2.1" />
      <text xml:space="preserve" x="665" y="534" stroke="none">H</text>
      <text xml:space="preserve" x="676" font-size="13" y="538" stroke="none">A</text>
      <line fill="none" x1="-425" x2="-419" y1="355" y2="361" stroke="gray" stroke-width="2.1" />
      <line fill="none" x1="-419" x2="-425" y1="355" y2="361" stroke="gray" stroke-width="2.1" />
      <text xml:space="preserve" x="-422" y="348" stroke="none">L</text>
      <line fill="none" x1="-291" x2="-285" y1="-728" y2="-722" stroke="gray" stroke-width="2.1" />
      <line fill="none" x1="-285" x2="-291" y1="-728" y2="-722" stroke="gray" stroke-width="2.1" />
      <text xml:space="preserve" x="-288" y="-735" stroke="none">G</text>
      <line fill="none" x1="741" x2="747" y1="355" y2="361" stroke="gray" stroke-width="2.1" />
      <line fill="none" x1="747" x2="741" y1="355" y2="361" stroke="gray" stroke-width="2.1" />
      <text xml:space="preserve" x="744" y="348" stroke="none">G</text>
      <text xml:space="preserve" x="756" font-size="13" y="352" stroke="none">D</text>
      <line fill="none" x1="919" x2="925" y1="541" y2="547" stroke="gray" stroke-width="2.1" />
      <line fill="none" x1="925" x2="919" y1="541" y2="547" stroke="gray" stroke-width="2.1" />
      <text xml:space="preserve" x="922" y="534" stroke="none">G</text>
      <text xml:space="preserve" x="934" font-size="13" y="538" stroke="none">A</text>
    </g>
  </g>
</svg>
