<?xml version="1.0" encoding="UTF-8"?>

<!DOCTYPE svg PUBLIC '-//W3C//DTD SVG 1.0//EN' 'http://www.w3.org/TR/2001/REC-SVG-20010904/DTD/svg10.dtd'>
<svg stroke-dasharray="none" shape-rendering="auto" xmlns="http://www.w3.org/2000/svg" font-family="&apos;Dialog&apos;" text-rendering="auto" width="25.299916527346788cm" fill-opacity="1" color-interpolation="auto" color-rendering="auto" font-size="12" viewBox="0 0 1229 844" fill="black" xmlns:xlink="http://www.w3.org/1999/xlink" stroke="black" image-rendering="auto" stroke-miterlimit="10" stroke-linecap="square" stroke-linejoin="miter" font-style="normal" stroke-width="1" height="17.38421724870864cm" stroke-dashoffset="0" font-weight="normal" stroke-opacity="1">
  <!--Generated by the Batik Graphics2D SVG Generator-->
  <defs id="genericDefs" />
  <g>
    <g stroke-linecap="butt" fill="rgb(255,175,175)" text-rendering="geometricPrecision" stroke-linejoin="bevel" stroke-dasharray="2,2" stroke="rgb(255,175,175)" stroke-width="0.7" stroke-miterlimit="8">
      <line y2="844" fill="none" x1="-2" x2="-2" y1="0" />
      <line y2="844" fill="none" x1="119" x2="119" y1="0" />
      <line y2="844" fill="none" x1="241" x2="241" y1="0" />
      <line y2="844" fill="none" x1="362" x2="362" y1="0" />
      <line y2="844" fill="none" x1="484" x2="484" y1="0" />
      <line y2="844" fill="none" x1="605" x2="605" y1="0" />
      <line y2="844" fill="none" x1="727" x2="727" y1="0" />
      <line y2="844" fill="none" x1="848" x2="848" y1="0" />
      <line y2="844" fill="none" x1="969" x2="969" y1="0" />
      <line y2="844" fill="none" x1="1091" x2="1091" y1="0" />
      <line y2="844" fill="none" x1="1212" x2="1212" y1="0" />
      <line y2="844" fill="none" x1="1334" x2="1334" y1="0" />
      <line y2="844" fill="none" x1="1455" x2="1455" y1="0" />
      <line y2="844" fill="none" x1="1577" x2="1577" y1="0" />
      <line y2="-7" fill="none" x1="0" x2="1229" y1="-7" />
      <line y2="114" fill="none" x1="0" x2="1229" y1="114" />
      <line y2="235" fill="none" x1="0" x2="1229" y1="235" />
      <line y2="357" fill="none" x1="0" x2="1229" y1="357" />
      <line y2="478" fill="none" x1="0" x2="1229" y1="478" />
      <line y2="600" fill="none" x1="0" x2="1229" y1="600" />
      <line y2="721" fill="none" x1="0" x2="1229" y1="721" />
      <line y2="842" fill="none" x1="0" x2="1229" y1="842" />
      <line y2="964" fill="none" x1="0" x2="1229" y1="964" />
      <line y2="1085" fill="none" x1="0" x2="1229" y1="1085" />
    </g>
    <g fill-opacity="0" fill="rgb(0,255,0)" text-rendering="geometricPrecision" stroke="rgb(0,255,0)" stroke-width="1.4" stroke-opacity="0">
      <ellipse rx="1821.5" ry="1820.5" cx="1819.5" cy="1813.5" stroke="none" />
    </g>
    <g fill-opacity="0.251" fill="rgb(0,0,255)" text-rendering="geometricPrecision" stroke="rgb(0,0,255)" stroke-width="1.4" stroke-opacity="0.251">
      <ellipse rx="1821.5" fill="none" ry="1820.5" cx="1819.5" cy="1813.5" />
    </g>
    <g font-size="15" fill-opacity="0" fill="rgb(0,0,0)" text-rendering="geometricPrecision" stroke="rgb(0,0,0)" stroke-width="0.7" stroke-opacity="0">
      <text xml:space="preserve" x="180" y="1813" stroke="none">k</text>
      <text xml:space="preserve" x="188" font-size="13" y="1817" stroke="none">a</text>
    </g>
    <g fill="blue" text-rendering="geometricPrecision" stroke-width="1.4" font-size="13" stroke="blue">
      <line y2="854" fill="none" x1="78" x2="903" y1="-10" />
    </g>
    <g font-size="15" fill-opacity="0" fill="rgb(0,0,0)" text-rendering="geometricPrecision" stroke="rgb(0,0,0)" stroke-width="0.7" stroke-opacity="0">
      <text xml:space="preserve" x="88" y="15" stroke="none">r+</text>
    </g>
    <g font-size="15" fill-opacity="0.4" fill="rgb(0,0,255)" text-rendering="geometricPrecision" stroke="rgb(0,0,255)" stroke-width="1.4" stroke-opacity="0.4">
      <line y2="-150" fill="none" x1="-10" x2="1239" y1="1042" />
    </g>
    <g font-size="15" fill-opacity="0" fill="rgb(0,0,0)" text-rendering="geometricPrecision" stroke="rgb(0,0,0)" stroke-width="0.7" stroke-opacity="0">
      <text xml:space="preserve" x="1077" y="17" stroke="none">f</text>
      <ellipse fill="rgb(0,255,0)" rx="243" cx="562" ry="242.5" cy="496.5" stroke="none" stroke-width="1.4" />
    </g>
    <g font-size="15" fill-opacity="0.4" fill="rgb(0,0,255)" text-rendering="geometricPrecision" stroke="rgb(0,0,255)" stroke-width="1.4" stroke-opacity="0.4">
      <ellipse rx="243" fill="none" ry="242.5" cx="562" cy="496.5" />
    </g>
    <g font-size="15" fill-opacity="0" fill="rgb(0,0,0)" text-rendering="geometricPrecision" stroke="rgb(0,0,0)" stroke-width="0.7" stroke-opacity="0">
      <text xml:space="preserve" x="343" y="496" stroke="none">k</text>
      <text xml:space="preserve" x="351" font-size="13" y="500" stroke="none">b</text>
    </g>
    <g fill="blue" text-rendering="geometricPrecision" stroke-width="1.4" font-size="13" stroke="blue">
      <line y2="1813" fill="none" x1="1212" x2="1239" y1="1813" />
    </g>
    <g font-size="15" fill-opacity="0" fill="rgb(0,0,0)" text-rendering="geometricPrecision" stroke="rgb(0,0,0)" stroke-width="0.7" stroke-opacity="0">
      <text xml:space="preserve" x="1507" y="1813" stroke="none">d</text>
    </g>
    <g font-size="15" fill-opacity="0.1961" fill="rgb(255,127,0)" text-rendering="geometricPrecision" stroke="rgb(255,127,0)" stroke-width="1.4" stroke-opacity="0.1961">
      <path d="M1751.6182 1743.224 C1732.6901 1761.5027 1722 1786.6869 1722 1813 L1819 1813 Z" stroke="none" />
      <path fill="none" fill-opacity="0.3922" d="M1751.6182 1743.224 C1732.6901 1761.5027 1722 1786.6869 1722 1813" stroke-opacity="0.3922" />
    </g>
    <g text-rendering="geometricPrecision" stroke-width="0.7" font-size="15">
      <text xml:space="preserve" x="1760" y="1788" stroke="none">α</text>
      <text xml:space="preserve" x="1880" y="175" stroke="none">E = (r * cos(α)|r * sin(α))</text>
    </g>
    <g font-size="15" fill-opacity="0" fill="rgb(200,200,200)" text-rendering="geometricPrecision" stroke="rgb(200,200,200)" stroke-width="0.7" stroke-opacity="0">
      <rect fill="none" width="188" x="1878" height="20" y="159" />
    </g>
    <g fill="blue" text-rendering="geometricPrecision" stroke-width="1.4" font-size="15" stroke="blue">
      <line y2="854" fill="none" x1="-10" x2="1239" y1="-454" />
    </g>
    <g font-size="15" fill-opacity="0" fill="rgb(0,0,0)" text-rendering="geometricPrecision" stroke="rgb(0,0,0)" stroke-width="0.7" stroke-opacity="0">
      <text xml:space="preserve" x="1212" y="819" stroke="none">n</text>
    </g>
    <g fill="blue" text-rendering="geometricPrecision" stroke-width="1.4" font-size="15" stroke="blue">
      <line y2="854" fill="none" x1="2184" x2="2184" y1="1570" />
    </g>
    <g font-size="15" fill-opacity="0" fill="rgb(0,0,0)" text-rendering="geometricPrecision" stroke="rgb(0,0,0)" stroke-width="0.7" stroke-opacity="0">
      <text xml:space="preserve" x="2175" y="1692" stroke="none">h</text>
    </g>
    <g font-size="15" fill-opacity="0.502" fill="rgb(0,0,255)" text-rendering="geometricPrecision" stroke="rgb(0,0,255)" stroke-width="1.4" stroke-opacity="0.502">
      <line y2="1570" fill="none" x1="-10" x2="1239" y1="1570" />
    </g>
    <g font-size="15" fill-opacity="0" fill="rgb(0,0,0)" text-rendering="geometricPrecision" stroke="rgb(0,0,0)" stroke-width="0.7" stroke-opacity="0">
      <text xml:space="preserve" x="-1457047552" y="819" stroke="none">i</text>
    </g>
    <g fill="blue" text-rendering="geometricPrecision" stroke-width="1.4" font-size="15" stroke="blue">
      <line y2="854" fill="none" x1="2427" x2="2427" y1="1570" />
    </g>
    <g font-size="15" fill-opacity="0" fill="rgb(0,0,0)" text-rendering="geometricPrecision" stroke="rgb(0,0,0)" stroke-width="0.7" stroke-opacity="0">
      <text xml:space="preserve" x="2421" y="1692" stroke="none">j</text>
    </g>
    <g font-size="15" fill-opacity="0.349" fill="rgb(0,0,255)" text-rendering="geometricPrecision" stroke="rgb(0,0,255)" stroke-width="1.4" stroke-opacity="0.349">
      <line y2="1813" fill="none" x1="-10" x2="1239" y1="1813" />
    </g>
    <g font-size="15" fill-opacity="0" fill="rgb(0,0,0)" text-rendering="geometricPrecision" stroke="rgb(0,0,0)" stroke-width="0.7" stroke-opacity="0">
      <text xml:space="preserve" x="1212" y="819" stroke="none">k</text>
    </g>
    <g fill="red" text-rendering="geometricPrecision" stroke-width="1.4" font-size="15" stroke="red">
      <line y2="854" fill="none" x1="562" x2="903" y1="496" />
      <text x="1183" y="1155" fill="black" stroke="none" stroke-width="0.7" xml:space="preserve">r</text>
      <line fill="none" x1="562" x2="737" y1="496" y2="329" stroke="rgb(0,128,64)" />
      <text x="634" y="412" fill="black" stroke="none" stroke-width="0.7" xml:space="preserve">r</text>
    </g>
    <g text-rendering="geometricPrecision" stroke-width="0.7" font-size="13">
      <text xml:space="preserve" x="640" y="416" stroke="none">e</text>
    </g>
    <g font-size="13" fill-opacity="0.502" fill="rgb(0,0,255)" text-rendering="geometricPrecision" stroke="rgb(0,0,255)" stroke-width="1.4" stroke-opacity="0.502">
      <line y2="854" fill="none" x1="737" x2="737" y1="329" />
    </g>
    <g font-size="15" fill-opacity="0" fill="rgb(0,0,0)" text-rendering="geometricPrecision" stroke="rgb(0,0,0)" stroke-width="0.7" stroke-opacity="0">
      <text xml:space="preserve" x="728" y="950" stroke="none">g</text>
      <ellipse fill="rgb(0,255,0)" rx="243" cx="738" ry="242.5" cy="328.5" stroke="none" stroke-width="1.4" />
    </g>
    <g font-size="15" fill-opacity="0.302" fill="rgb(0,0,255)" text-rendering="geometricPrecision" stroke="rgb(0,0,255)" stroke-width="1.4" stroke-opacity="0.302">
      <ellipse rx="243" fill="none" ry="242.5" cx="738" cy="328.5" />
    </g>
    <g font-size="15" fill-opacity="0" fill="rgb(0,0,0)" text-rendering="geometricPrecision" stroke="rgb(0,0,0)" stroke-width="0.7" stroke-opacity="0">
      <text xml:space="preserve" x="519" y="329" stroke="none">k</text>
      <text xml:space="preserve" x="527" font-size="13" y="333" stroke="none">c</text>
    </g>
    <g fill="blue" text-rendering="geometricPrecision" stroke-width="1.4" font-size="13" stroke="blue">
      <line y2="502" fill="none" x1="-10" x2="1239" y1="-806" />
    </g>
    <g font-size="15" fill-opacity="0" fill="rgb(0,0,0)" text-rendering="geometricPrecision" stroke="rgb(0,0,0)" stroke-width="0.7" stroke-opacity="0">
      <text xml:space="preserve" x="1214" y="502" stroke="none">a</text>
    </g>
    <g fill="blue" text-rendering="geometricPrecision" stroke-width="1.4" font-size="15" stroke="blue">
      <line y2="1570" fill="none" x1="2184" x2="1239" y1="1570" />
    </g>
    <g font-size="15" fill-opacity="0" fill="rgb(0,0,0)" text-rendering="geometricPrecision" stroke="rgb(0,0,0)" stroke-width="0.7" stroke-opacity="0">
      <text xml:space="preserve" x="2299" y="1570" stroke="none">l</text>
    </g>
    <g fill="blue" text-rendering="geometricPrecision" stroke-width="1.4" font-size="15" stroke="blue">
      <line y2="1813" fill="none" x1="2184" x2="1239" y1="1813" />
    </g>
    <g font-size="15" fill-opacity="0" fill="rgb(0,0,0)" text-rendering="geometricPrecision" stroke="rgb(0,0,0)" stroke-width="0.7" stroke-opacity="0">
      <text xml:space="preserve" x="2293" y="1813" stroke="none">m</text>
    </g>
    <g font-size="15" fill-opacity="0.1961" fill="rgb(255,127,0)" text-rendering="geometricPrecision" stroke="rgb(255,127,0)" stroke-width="1.4" stroke-opacity="0.1961">
      <path d="M2457.9617 1778.6121 C2448.4001 1787.7513 2443 1800.3434 2443 1813.5 L2492 1813.5 Z" stroke="none" />
      <path fill="none" fill-opacity="0.3922" d="M2457.9617 1778.6121 C2448.4001 1787.7513 2443 1800.3434 2443 1813.5" stroke-opacity="0.3922" />
    </g>
    <g text-rendering="geometricPrecision" stroke-width="0.7" font-size="15">
      <text xml:space="preserve" x="2461" y="1801" stroke="none">α</text>
    </g>
    <g font-size="15" fill-opacity="0.1961" fill="rgb(255,127,0)" text-rendering="geometricPrecision" stroke="rgb(255,127,0)" stroke-width="1.4" stroke-opacity="0.1961">
      <path d="M2057.7637 1709.5519 C2095.6199 1672.9946 2117 1622.6263 2117 1570 L1923 1570 Z" stroke="none" />
      <path fill="none" fill-opacity="0.3922" d="M2057.7637 1709.5519 C2095.6199 1672.9946 2117 1622.6263 2117 1570" stroke-opacity="0.3922" />
    </g>
    <g text-rendering="geometricPrecision" stroke-width="0.7" font-size="15">
      <text xml:space="preserve" x="2043" y="1621" stroke="none">α</text>
      <line fill="none" x1="1817" x2="1823" y1="1810" y2="1816" stroke="red" stroke-width="2.1" />
      <line fill="none" x1="1823" x2="1817" y1="1810" y2="1816" stroke="red" stroke-width="2.1" />
      <text xml:space="preserve" x="1820" y="1803" stroke="none">M</text>
      <line fill="none" x1="559" x2="565" y1="493" y2="499" stroke="rgb(255,150,0)" stroke-width="2.1" />
      <line fill="none" x1="565" x2="559" y1="493" y2="499" stroke="rgb(255,150,0)" stroke-width="2.1" />
      <text xml:space="preserve" x="562" y="486" stroke="none">E</text>
      <line fill="none" x1="383" x2="389" y1="661" y2="667" stroke="gray" stroke-width="2.1" />
      <line fill="none" x1="389" x2="383" y1="661" y2="667" stroke="gray" stroke-width="2.1" />
      <text xml:space="preserve" x="386" y="654" stroke="none">F</text>
      <line fill="none" x1="734" x2="740" y1="326" y2="332" stroke="gray" stroke-width="2.1" />
      <line fill="none" x1="740" x2="734" y1="326" y2="332" stroke="gray" stroke-width="2.1" />
      <text xml:space="preserve" x="737" y="319" stroke="none">H</text>
    </g>
    <g font-size="15" fill-opacity="0" fill="rgb(255,0,0)" text-rendering="geometricPrecision" stroke="rgb(255,0,0)" stroke-width="2.1" stroke-opacity="0">
      <line y2="1816" fill="none" x1="1209" x2="1215" y1="1810" />
      <line y2="1816" fill="none" x1="1215" x2="1209" y1="1810" />
      <text x="1212" y="1803" fill="rgb(0,0,0)" stroke="none" stroke-width="0.7" xml:space="preserve">K</text>
    </g>
    <g fill="rgb(0,128,64)" text-rendering="geometricPrecision" stroke-width="2.1" font-size="15" stroke="rgb(0,128,64)">
      <line y2="1816" fill="none" x1="2181" x2="2187" y1="1810" />
      <line y2="1816" fill="none" x1="2187" x2="2181" y1="1810" />
      <text x="2184" y="1803" fill="black" stroke="none" stroke-width="0.7" xml:space="preserve">A</text>
    </g>
    <g font-size="15" fill-opacity="0" fill="rgb(255,0,0)" text-rendering="geometricPrecision" stroke="rgb(255,0,0)" stroke-width="2.1" stroke-opacity="0">
      <line y2="1573" fill="none" x1="2181" x2="2187" y1="1567" />
      <line y2="1573" fill="none" x1="2187" x2="2181" y1="1567" />
    </g>
    <g text-rendering="geometricPrecision" stroke-width="0.7" font-size="15">
      <text xml:space="preserve" x="2184" y="1560" stroke="none">D</text>
    </g>
    <g font-size="15" fill-opacity="0" fill="rgb(255,0,0)" text-rendering="geometricPrecision" stroke="rgb(255,0,0)" stroke-width="2.1" stroke-opacity="0">
      <line y2="1573" fill="none" x1="2424" x2="2430" y1="1567" />
      <line y2="1573" fill="none" x1="2430" x2="2424" y1="1567" />
    </g>
    <g text-rendering="geometricPrecision" stroke-width="0.7" font-size="15">
      <text xml:space="preserve" x="2427" y="1560" stroke="none">C</text>
    </g>
    <g font-size="15" fill-opacity="0" fill="rgb(255,0,0)" text-rendering="geometricPrecision" stroke="rgb(255,0,0)" stroke-width="2.1" stroke-opacity="0">
      <line y2="1816" fill="none" x1="2424" x2="2430" y1="1810" />
      <line y2="1816" fill="none" x1="2430" x2="2424" y1="1810" />
    </g>
    <g text-rendering="geometricPrecision" stroke-width="0.7" font-size="15">
      <text xml:space="preserve" x="2427" y="1803" stroke="none">B</text>
      <line fill="none" x1="1921" x2="1927" y1="1567" y2="1573" stroke="gray" stroke-width="2.1" />
      <line fill="none" x1="1927" x2="1921" y1="1567" y2="1573" stroke="gray" stroke-width="2.1" />
      <text xml:space="preserve" x="1924" y="1560" stroke="none">H</text>
      <text xml:space="preserve" x="1935" font-size="13" y="1564" stroke="none">D</text>
      <line fill="none" x1="2152" x2="2158" y1="1810" y2="1816" stroke="gray" stroke-width="2.1" />
      <line fill="none" x1="2158" x2="2152" y1="1810" y2="1816" stroke="gray" stroke-width="2.1" />
      <text xml:space="preserve" x="2155" y="1803" stroke="none">H</text>
      <text xml:space="preserve" x="2166" font-size="13" y="1807" stroke="none">A</text>
      <line fill="none" x1="734" x2="740" y1="1567" y2="1573" stroke="gray" stroke-width="2.1" />
      <line fill="none" x1="740" x2="734" y1="1567" y2="1573" stroke="gray" stroke-width="2.1" />
      <text xml:space="preserve" x="737" y="1560" stroke="none">L</text>
      <line fill="none" x1="910" x2="916" y1="158" y2="164" stroke="gray" stroke-width="2.1" />
      <line fill="none" x1="916" x2="910" y1="158" y2="164" stroke="gray" stroke-width="2.1" />
      <text xml:space="preserve" x="913" y="151" stroke="none">G</text>
      <line fill="none" x1="2256" x2="2262" y1="1567" y2="1573" stroke="gray" stroke-width="2.1" />
      <line fill="none" x1="2262" x2="2256" y1="1567" y2="1573" stroke="gray" stroke-width="2.1" />
      <text xml:space="preserve" x="2259" y="1560" stroke="none">G</text>
      <text xml:space="preserve" x="2271" font-size="13" y="1564" stroke="none">D</text>
      <line fill="none" x1="2488" x2="2494" y1="1810" y2="1816" stroke="gray" stroke-width="2.1" />
      <line fill="none" x1="2494" x2="2488" y1="1810" y2="1816" stroke="gray" stroke-width="2.1" />
      <text xml:space="preserve" x="2491" y="1803" stroke="none">G</text>
      <text xml:space="preserve" x="2503" font-size="13" y="1807" stroke="none">A</text>
      <line fill="none" x1="2424" x2="2430" y1="1743" y2="1749" stroke="gray" stroke-width="2.1" />
      <line fill="none" x1="2430" x2="2424" y1="1743" y2="1749" stroke="gray" stroke-width="2.1" />
      <text xml:space="preserve" x="2427" y="1736" stroke="none">RVI</text>
    </g>
  </g>
</svg>
